<?xml version="1.0" standalone="no"?>
<!DOCTYPE svg PUBLIC "-//W3C//DTD SVG 20010904//EN"
 "http://www.w3.org/TR/2001/REC-SVG-20010904/DTD/svg10.dtd">
<svg version="1.0" xmlns="http://www.w3.org/2000/svg"
 width="16.000000pt" height="16.000000pt" viewBox="0 0 16.000000 16.000000"
 preserveAspectRatio="xMidYMid meet">
<metadata>
Created by potrace 1.11, written by Peter Selinger 2001-2013
</metadata>
<g transform="translate(0.000000,16.000000) scale(0.006154,-0.006154)"
fill="#000000" stroke="none">
<path d="M220 2245 l0 -155 479 0 479 0 1 -746 c1 -410 -1 -750 -4 -754 -3 -5
-15 -6 -29 0 -12 4 -38 11 -57 14 -19 3 -72 14 -119 25 -47 11 -97 22 -113 25
-15 3 -37 8 -48 11 -12 4 -31 8 -42 10 -12 1 -52 10 -90 19 -37 8 -79 18 -95
21 -15 3 -81 18 -147 34 -84 20 -122 25 -126 17 -4 -6 -19 -67 -33 -136 -15
-69 -29 -132 -32 -141 -3 -13 8 -19 58 -29 35 -7 68 -14 73 -16 6 -1 73 -16
150 -33 77 -16 264 -58 415 -91 151 -34 289 -64 305 -66 17 -3 44 -9 60 -14
17 -5 57 -14 90 -20 33 -6 68 -14 78 -16 16 -5 17 25 17 538 l0 543 362 0 363
0 1 145 c1 80 -2 150 -6 155 -5 6 -137 10 -364 9 l-356 -2 -1 32 c0 17 -1 129
-2 248 l-2 218 443 0 442 0 0 155 0 155 -1075 0 -1075 0 0 -155z"/>
</g>
</svg>
